# xmcd
# Copyright (C) 1995-1998 Ti Kan
#
# Track frame offsets:
#       150
#       17955
#       37953
#       56619
#       77392
#       95117
#       110984
#       130141
#       147974
#       170487
#       195659
#       216432
#       241365
#       256932
#       271732
#       290313
#       308848
#       328285
#       346544
#
# Disc length: 4799 seconds
#
# Revision: 0
# Processed by: cddbd v1.5.2PL0 Copyright (c) Steve Scherf et al.
# Submitted via: CD-Transfer v1.0
#
DISCID=1912bd13
DTITLE=Grant, Amy - A. Grant
DYEAR=1900
DGENRE=
TTITLE0=Simple Things
TTITLE1=Takes A Little Time
TTITLE2=Lucky One
TTITLE3=House Of Love
TTITLE4=Baby, Baby
TTITLE5=Every Heartbeat
TTITLE6=That's What Love Is For
TTITLE7=Good For Me
TTITLE8=I Will Remember
TTITLE9=Lead On Me
TTITLE10=Saved By Love
TTITLE11=Stay For Awhile
TTITLE12=Find A Way
TTITLE13=Thy Word
TTITLE14=Angels
TTITLE15=El-Shaddai
TTITLE16=In A Little While
TTITLE17=Father's Eyes
TTITLE18=Old Man's Rubble
EXTD=
EXTT0=
EXTT1=
EXTT2=
EXTT3=
EXTT4=
EXTT5=
EXTT6=
EXTT7=
EXTT8=
EXTT9=
EXTT10=
EXTT11=
EXTT12=
EXTT13=
EXTT14=
EXTT15=
EXTT16=
EXTT17=
EXTT18=
PLAYORDER=
